<svg width="current" height="current" viewBox="0 0 24 24" fill="current" xmlns="http://www.w3.org/2000/svg">
<path fill-rule="evenodd" clip-rule="evenodd" d="M12.5052 4.0246C8.36573 4.0246 5.01004 7.38029 5.01004 11.5198C5.01004 12.7179 5.29042 13.8476 5.78825 14.8496C5.90586 15.0864 5.92496 15.3601 5.84137 15.6108L4.57252 19.4173L8.4174 18.1775C8.66601 18.0973 8.93611 18.1176 9.16995 18.234C10.1733 18.7335 11.3049 19.0149 12.5052 19.0149C16.6446 19.0149 20.0003 15.6592 20.0003 11.5198C20.0003 7.38029 16.6447 4.0246 12.5052 4.0246ZM3.01004 11.5198C3.01004 6.27572 7.26116 2.0246 12.5052 2.0246C17.7492 2.0246 22.0003 6.27572 22.0003 11.5198C22.0003 16.7638 17.7492 21.0149 12.5052 21.0149C11.1366 21.0149 9.83352 20.7248 8.65591 20.202L3.30594 21.9271C2.94713 22.0428 2.55374 21.9469 2.28847 21.679C2.02321 21.4111 1.93115 21.0168 2.05037 20.6591L3.81771 15.3572C3.29823 14.1827 3.01004 12.8837 3.01004 11.5198Z" fill="current"/>
</svg>
