<svg width="26" height="24" viewBox="0 0 26 24" fill="current" xmlns="http://www.w3.org/2000/svg">
<path d="M13 11C13.5523 11 14 11.4477 14 12V16C14 16.5523 13.5523 17 13 17C12.4477 17 12 16.5523 12 16V12C12 11.4477 12.4477 11 13 11Z" fill="current"/>
<path d="M13 7C12.4477 7 12 7.44772 12 8C12 8.55228 12.4477 9 13 9H13.01C13.5623 9 14.01 8.55228 14.01 8C14.01 7.44772 13.5623 7 13.01 7H13Z" fill="current"/>
<path fill-rule="evenodd" clip-rule="evenodd" d="M2 12C2 5.92487 6.92487 1 13 1C19.0751 1 24 5.92487 24 12C24 18.0751 19.0751 23 13 23C6.92487 23 2 18.0751 2 12ZM13 3C8.02944 3 4 7.02944 4 12C4 16.9706 8.02944 21 13 21C17.9706 21 22 16.9706 22 12C22 7.02944 17.9706 3 13 3Z" fill="current"/>
</svg>
