<svg width="current" height="current" viewBox="0 0 24 24" fill="current" xmlns="http://www.w3.org/2000/svg">
<path fill-rule="evenodd" clip-rule="evenodd" d="M12 6.00006C9.79086 6.00006 8 7.79092 8 10.0001C8 12.2092 9.79086 14.0001 12 14.0001C14.2091 14.0001 16 12.2092 16 10.0001C16 7.79092 14.2091 6.00006 12 6.00006ZM10 10.0001C10 8.89549 10.8954 8.00006 12 8.00006C13.1046 8.00006 14 8.89549 14 10.0001C14 11.1046 13.1046 12.0001 12 12.0001C10.8954 12.0001 10 11.1046 10 10.0001Z" fill="current"/>
<path fill-rule="evenodd" clip-rule="evenodd" d="M11.4448 23.8318C11.445 23.8319 11.4453 23.8321 12 23.0001L11.4448 23.8318C11.7807 24.0557 12.2188 24.056 12.5547 23.8321L12 23.0001C12.5547 23.8321 12.5544 23.8323 12.5547 23.8321L12.5581 23.8298L12.5648 23.8254L12.5877 23.8099C12.6072 23.7966 12.6349 23.7777 12.6704 23.7531C12.7415 23.7039 12.8435 23.6322 12.9722 23.5393C13.2295 23.3535 13.5936 23.0823 14.0292 22.7355C14.8987 22.0431 16.0606 21.0429 17.226 19.8128C19.5157 17.3958 22 13.902 22 10.0001C22 7.3479 20.9464 4.80436 19.0711 2.92899C17.1957 1.05363 14.6522 6.10352e-05 12 6.10352e-05C9.34784 6.10352e-05 6.8043 1.05363 4.92893 2.92899C3.05357 4.80436 2 7.3479 2 10.0001C2 13.902 4.48426 17.3958 6.77405 19.8128C7.93939 21.0429 9.10133 22.0431 9.97082 22.7355C10.4064 23.0823 10.7705 23.3535 11.0278 23.5393C11.1565 23.6322 11.2585 23.7039 11.3296 23.7531C11.3651 23.7777 11.3928 23.7966 11.4123 23.8099L11.4352 23.8254L11.4419 23.8298L11.4448 23.8318ZM6.34315 4.34321C7.84344 2.84292 9.87827 2.00006 12 2.00006C14.1217 2.00006 16.1566 2.84292 17.6569 4.34321C19.1571 5.8435 20 7.87833 20 10.0001C20 13.0981 17.9843 16.1043 15.774 18.4373C14.6894 19.5822 13.6013 20.5195 12.7833 21.1709C12.4789 21.4133 12.213 21.6153 12 21.7726C11.787 21.6153 11.5211 21.4133 11.2167 21.1709C10.3987 20.5195 9.31061 19.5822 8.22595 18.4373C6.01574 16.1043 4 13.0981 4 10.0001C4 7.87833 4.84285 5.8435 6.34315 4.34321Z" fill="current"/>
</svg>
