<svg width="current" height="current" viewBox="0 0 24 24" fill="current" xmlns="http://www.w3.org/2000/svg">
<path d="M17.8376 3.24826C15.9402 2.19934 13.7533 1.79548 11.6063 2.09754C9.46605 2.39867 7.48112 3.3851 5.9487 4.90879L3.00098 7.62977V3.99066C3.00098 3.43838 2.55326 2.99066 2.00098 2.99066C1.44869 2.99066 1.00098 3.43838 1.00098 3.99066V9.99066C1.00098 10.5429 1.44869 10.9907 2.00098 10.9907H8.00098C8.55326 10.9907 9.00098 10.5429 9.00098 9.99066C9.00098 9.43838 8.55326 8.99066 8.00098 8.99066H4.47531L7.31926 6.36548C7.32885 6.35663 7.33826 6.34759 7.34749 6.33838C8.57497 5.11297 10.1674 4.31968 11.885 4.07804C13.6025 3.83639 15.3521 4.15947 16.87 4.99861C18.388 5.83775 19.5921 7.14748 20.3009 8.73047C21.0098 10.3134 21.185 12.0839 20.8001 13.7751C20.4153 15.4664 19.4912 16.9867 18.1672 18.107C16.8431 19.2274 15.1908 19.8871 13.4592 19.9868C11.7277 20.0865 10.0106 19.6207 8.56674 18.6596C7.1229 17.6985 6.03051 16.2943 5.45416 14.6584C5.27064 14.1375 4.69959 13.864 4.17869 14.0475C3.65778 14.231 3.38428 14.8021 3.56781 15.323C4.28824 17.3678 5.65373 19.1232 7.45854 20.3245C9.26334 21.5258 11.4097 22.1081 13.5742 21.9835C15.7386 21.8589 17.804 21.0343 19.4591 19.6338C21.1141 18.2334 22.2692 16.3329 22.7503 14.2189C23.2313 12.1049 23.0124 9.89181 22.1263 7.91308C21.2402 5.93435 19.7351 4.29718 17.8376 3.24826Z" fill="current"/>
</svg>
