<svg width="current" height="current" viewBox="0 0 24 24" fill="current" xmlns="http://www.w3.org/2000/svg">
<path d="M8.58692 8.21448L2.77955 9.05646L2.67669 9.0774C2.52099 9.11873 2.37904 9.20065 2.26535 9.31479C2.15165 9.42893 2.07029 9.57119 2.02957 9.72706C1.98884 9.88293 1.99021 10.0468 2.03354 10.202C2.07687 10.3571 2.1606 10.498 2.27619 10.6103L6.48334 14.7054L5.49117 20.4901L5.47934 20.5902C5.46981 20.7512 5.50325 20.9119 5.57624 21.0558C5.64922 21.1996 5.75914 21.3215 5.89472 21.409C6.0303 21.4964 6.18668 21.5462 6.34785 21.5533C6.50902 21.5604 6.66918 21.5246 6.81194 21.4495L12.0058 18.7187L17.1878 21.4495L17.2789 21.4913C17.4291 21.5505 17.5924 21.5687 17.752 21.5439C17.9115 21.5191 18.0616 21.4524 18.1869 21.3505C18.3122 21.2486 18.4081 21.1152 18.4648 20.964C18.5214 20.8128 18.5369 20.6492 18.5095 20.4901L17.5164 14.7054L21.7254 10.6093L21.7964 10.532C21.8978 10.4071 21.9643 10.2575 21.9891 10.0985C22.0139 9.93952 21.9961 9.77681 21.9376 9.62694C21.879 9.47707 21.7818 9.3454 21.6558 9.24535C21.5297 9.1453 21.3795 9.08043 21.2202 9.05737L15.4129 8.21448L12.8168 2.95326C12.7417 2.80083 12.6254 2.67247 12.4811 2.58271C12.3368 2.49295 12.1703 2.44537 12.0003 2.44537C11.8304 2.44537 11.6639 2.49295 11.5196 2.58271C11.3753 2.67247 11.259 2.80083 11.1839 2.95326L8.58692 8.21448Z" fill="#69AFA5"/>
</svg>
