<svg width="current" height="current" viewBox="0 0 24 24" fill="current" xmlns="http://www.w3.org/2000/svg">
<path d="M10.0166 3.22128C11.9096 2.79357 13.8902 2.98926 15.663 3.77915C16.1675 4.00393 16.7587 3.7772 16.9834 3.27272C17.2082 2.76825 16.9815 2.17708 16.477 1.9523C14.3103 0.986867 11.8896 0.747697 9.57581 1.27046C7.26206 1.79322 5.17929 3.0499 3.63811 4.85308C2.09693 6.65625 1.17992 8.90932 1.02384 11.2762C0.86777 13.6432 1.48099 15.9971 2.77206 17.9871C4.06312 19.977 5.96285 21.4963 8.18792 22.3183C10.413 23.1404 12.8442 23.2211 15.1189 22.5486C17.3936 21.876 19.39 20.4862 20.8103 18.5863C22.2306 16.6864 22.9986 14.3784 23 12.0063V11.0857C23 10.5334 22.5523 10.0857 22 10.0857C21.4477 10.0857 21 10.5334 21 11.0857V12.0052C20.9989 13.9459 20.3705 15.8344 19.2084 17.3888C18.0464 18.9432 16.413 20.0804 14.5518 20.6307C12.6907 21.1809 10.7015 21.1149 8.88103 20.4423C7.06051 19.7697 5.50619 18.5266 4.44987 16.8985C3.39354 15.2704 2.89181 13.3444 3.01951 11.4078C3.14721 9.47126 3.89749 7.62785 5.15845 6.15252C6.41942 4.67719 8.12351 3.649 10.0166 3.22128Z" fill="current"/>
<path d="M22.7075 4.71249C23.0978 4.32177 23.0975 3.68861 22.7068 3.29828C22.316 2.90795 21.6829 2.90827 21.2925 3.29898L11.9996 12.6012L9.70711 10.3086C9.31658 9.91811 8.68342 9.91811 8.29289 10.3086C7.90237 10.6992 7.90237 11.3323 8.29289 11.7228L11.2929 14.7228C11.4805 14.9104 11.7349 15.0158 12.0003 15.0157C12.2656 15.0157 12.52 14.9102 12.7075 14.7225L22.7075 4.71249Z" fill="current"/>
</svg>
