<svg width="current" height="current" viewBox="0 0 24 24" fill="current" xmlns="http://www.w3.org/2000/svg">
<path d="M11 3C11 2.44772 10.5523 2 10 2C9.44772 2 9 2.44772 9 3V21C9 21.5523 9.44772 22 10 22C10.5523 22 11 21.5523 11 21V3Z" fill="current"/>
<path d="M15 6C15 5.44772 14.5523 5 14 5C13.4477 5 13 5.44772 13 6V18C13 18.5523 13.4477 19 14 19C14.5523 19 15 18.5523 15 18V6Z" fill="current"/>
<path d="M18 7C18.5523 7 19 7.44772 19 8V16C19 16.5523 18.5523 17 18 17C17.4477 17 17 16.5523 17 16V8C17 7.44772 17.4477 7 18 7Z" fill="current"/>
<path d="M7 10C7 9.44772 6.55228 9 6 9C5.44772 9 5 9.44772 5 10V14C5 14.5523 5.44772 15 6 15C6.55228 15 7 14.5523 7 14V10Z" fill="current"/>
</svg>
